STARTFONT 2.1
FONT -Monotype-Book Antiqua-Bold-I-Normal--36-360-75-75-P-194-iso8859-4
SIZE 36 75 75
FONTBOUNDINGBOX 47 49 -7 -13

STARTPROPERTIES 24
FOUNDRY "Monotype"
FAMILY_NAME "Book Antiqua"
WEIGHT_NAME "Bold"
SLANT "I"
SETWIDTH_NAME "Normal"
ADD_STYLE_NAME ""
PIXEL_SIZE 36
POINT_SIZE 360
RESOLUTION_X 75
RESOLUTION_Y 75
SPACING "P"
AVERAGE_WIDTH 194
CHARSET_REGISTRY "iso8859"
CHARSET_ENCODING "4"
FACE_NAME "Book Antiqua Bold Italic ISO Latin4"
_DEC_DEVICE_FONTNAMES "PS=bookantiqua-bit-lat4"
COPYRIGHT "Copyright (c) 1993 Monotype Typography Ltd."
CAP_HEIGHT 33
X_HEIGHT 23
WEIGHT 10
QUAD_WIDTH 24
DEFAULT_CHAR 160
FONT_DESCENT 13
FONT_ASCENT 36
ENDPROPERTIES

CHARS 191

STARTCHAR space
ENCODING 32
SWIDTH 250 0
DWIDTH 10 0
BBX 0 0 0 0
BITMAP
ENDCHAR

STARTCHAR exclam
ENCODING 33
SWIDTH 333 0
DWIDTH 13 0
BBX 10 27 2 0
BITMAP
01C0
0F80
0F80
0F80
0F00
1F00
1F00
1E00
1E00
1E00
1C00
1C00
1C00
1C00
1800
1800
1800
3000
3000
0000
0000
7000
7800
F800
F800
F000
6000
ENDCHAR

STARTCHAR quotedbl
ENCODING 34
SWIDTH 500 0
DWIDTH 19 0
BBX 13 12 5 14
BITMAP
70F0
F9F8
F9F8
F9F8
F8F0
F8F0
70F0
70F0
7060
7060
2060
2060
ENDCHAR

STARTCHAR numbersign
ENCODING 35
SWIDTH 606 0
DWIDTH 23 0
BBX 21 26 2 0
BITMAP
0381C0
038380
038380
038380
038380
038380
070380
7FFFF8
7FFFF8
7FFFF8
070700
070700
0E0700
0E0700
0E0E00
FFFFF0
FFFFF0
FFFFF0
0E0E00
1C0E00
1C0C00
1C1C00
1C1C00
1C1C00
1C1C00
381C00
ENDCHAR

STARTCHAR dollar
ENCODING 36
SWIDTH 500 0
DWIDTH 19 0
BBX 17 32 0 -4
BITMAP
001000
001000
003800
01FF00
07B780
0E3380
1C2180
182180
386180
386000
386000
3C4000
3F4000
3FF000
1FFC00
0FFF00
03FF00
00FF80
008F80
008780
018780
618780
418700
410700
610E00
711C00
FFF800
1FE000
030000
020000
020000
020000
ENDCHAR

STARTCHAR percent
ENCODING 37
SWIDTH 889 0
DWIDTH 34 0
BBX 29 26 3 0
BITMAP
0F800700
1DC00E00
38E00C00
70E01800
70E03800
F0E03000
F0E06000
F1E06000
E1E0C000
E1C1C000
E1C183E0
E1C30630
63830E38
73061C38
3E0E1C38
000C1C38
00183C38
00183C38
00303878
00703878
00603870
00C03870
00C038F0
018018E0
03801DC0
07000F80
ENDCHAR

STARTCHAR ampersand
ENCODING 38
SWIDTH 833 0
DWIDTH 32 0
BBX 28 26 3 0
BITMAP
001F8000
007FC000
01C1C000
03808000
07008000
07008000
0F000060
0F000030
0F800010
07C00010
03F80030
01F807F0
0F00FFE0
1C03FF80
3C07F800
78063C00
F80C1E00
F00C1E00
F0001E00
F8001E00
F8001C00
FC003800
7E007000
3F01E000
1FFF8000
07F80000
ENDCHAR

STARTCHAR quoteright
ENCODING 39
SWIDTH 278 0
DWIDTH 11 0
BBX 8 12 3 15
BITMAP
01
0F
1E
3E
3C
3C
38
70
70
E0
C0
80
ENDCHAR

STARTCHAR parenleft
ENCODING 40
SWIDTH 333 0
DWIDTH 13 0
BBX 12 33 2 -5
BITMAP
0030
0060
00C0
01C0
0380
0700
0F00
1E00
1E00
3C00
3C00
7800
7800
F800
F800
F800
F000
F000
F000
F000
F000
F000
7000
7000
7000
3800
3800
1800
1C00
0C00
0600
0600
0200
ENDCHAR

STARTCHAR parenright
ENCODING 41
SWIDTH 333 0
DWIDTH 13 0
BBX 12 33 -2 -5
BITMAP
0400
0600
0200
0300
0180
0180
01C0
01C0
00E0
00E0
00F0
00F0
00F0
00F0
00F0
00F0
00F0
00F0
01F0
01F0
01E0
01E0
03C0
03C0
0380
0780
0700
0E00
1C00
1800
3000
E000
4000
ENDCHAR

STARTCHAR asterisk
ENCODING 42
SWIDTH 444 0
DWIDTH 17 0
BBX 14 13 3 13
BITMAP
01E0
21C0
71C0
F980
3D80
0F3C
03FC
1F3C
F900
7180
61C0
21C0
01C0
ENDCHAR

STARTCHAR plus
ENCODING 43
SWIDTH 606 0
DWIDTH 23 0
BBX 19 19 2 3
BITMAP
00E000
00E000
00E000
00E000
00E000
00E000
00E000
00E000
FFFFE0
FFFFE0
FFFFE0
00E000
00E000
00E000
00E000
00E000
00E000
00E000
00E000
ENDCHAR

STARTCHAR comma
ENCODING 44
SWIDTH 250 0
DWIDTH 10 0
BBX 9 12 -2 -6
BITMAP
0080
0780
0F00
1F00
1E00
1E00
1C00
3C00
3800
7000
6000
C000
ENDCHAR

STARTCHAR minus
ENCODING 45
SWIDTH 606 0
DWIDTH 23 0
BBX 19 3 2 11
BITMAP
FFFFE0
FFFFE0
FFFFE0
ENDCHAR

STARTCHAR period
ENCODING 46
SWIDTH 250 0
DWIDTH 10 0
BBX 5 6 1 0
BITMAP
70
F8
F8
F8
F8
70
ENDCHAR

STARTCHAR slash
ENCODING 47
SWIDTH 315 0
DWIDTH 12 0
BBX 24 33 -7 -5
BITMAP
00000F
00000F
00001E
00003C
00003C
000078
0000F8
0000F0
0001E0
0001E0
0003C0
000780
000780
000F00
000F00
001E00
003C00
003C00
007800
007800
00F000
01E000
01E000
03C000
07C000
078000
0F0000
0F0000
1E0000
3C0000
3C0000
780000
F80000
ENDCHAR

STARTCHAR zero
ENCODING 48
SWIDTH 500 0
DWIDTH 19 0
BBX 16 26 2 0
BITMAP
03F8
079C
0F1E
1E0E
1E0F
3C0F
3C0F
7C0F
7C0F
7C0F
F81F
F81F
F81F
F81F
F81F
F81F
F03E
F03E
F03E
F03C
F03C
7078
7078
78F0
39E0
1F80
ENDCHAR

STARTCHAR one
ENCODING 49
SWIDTH 500 0
DWIDTH 19 0
BBX 14 26 1 0
BITMAP
0008
0038
00F8
07F8
7EF0
78F0
60F0
01F0
01F0
01F0
01E0
01E0
01E0
03E0
03E0
03E0
03C0
03C0
07C0
07C0
07C0
07C0
0780
0F80
0FC0
FFFC
ENDCHAR

STARTCHAR two
ENCODING 50
SWIDTH 500 0
DWIDTH 19 0
BBX 17 26 0 0
BITMAP
03F800
07FE00
0FFF00
0C3F00
181F80
100F80
300F80
100F80
000F80
000F00
000F00
001E00
001E00
003C00
007800
007000
00E000
01C000
038000
070000
0E0000
180000
3FFF80
7FFF80
FFFF00
FFFF00
ENDCHAR

STARTCHAR three
ENCODING 51
SWIDTH 500 0
DWIDTH 19 0
BBX 17 26 0 0
BITMAP
01FC00
03FF00
07FF80
0E1F80
0C0F80
180780
080780
000780
000F00
000E00
001C00
007000
03FC00
043E00
001F00
000F80
000F80
000F80
000F80
600F80
600F00
601F00
601E00
603C00
F8F800
3FE000
ENDCHAR

STARTCHAR four
ENCODING 52
SWIDTH 500 0
DWIDTH 19 0
BBX 18 26 0 0
BITMAP
000180
000F80
001F00
003F00
006F00
00CF00
00DF00
019F00
031E00
061E00
061E00
0C1E00
183E00
183C00
303C00
603C00
7FFFC0
FFFFC0
FFFFC0
007800
007800
007800
007800
00F800
00F800
0FFF80
ENDCHAR

STARTCHAR five
ENCODING 53
SWIDTH 500 0
DWIDTH 19 0
BBX 18 26 0 0
BITMAP
0601C0
07FF80
07FF80
0FFF00
0C0000
0C0000
0C0000
080000
080000
180000
19F800
1BFE00
1C3F00
181F00
000F80
000F80
000F80
000F80
000F80
400F00
400F00
401F00
603E00
E03C00
F8F800
3FE000
ENDCHAR

STARTCHAR six
ENCODING 54
SWIDTH 500 0
DWIDTH 19 0
BBX 17 26 1 0
BITMAP
001F80
007F80
01C180
038000
070000
0F0000
0E0000
1E0000
3C0000
3C0000
7CFC00
7DFE00
7B1F00
7C1F80
FC0F80
F80F80
F80F80
F80F80
F80F00
F80F00
780F00
781E00
781C00
3C3800
1FF000
078000
ENDCHAR

STARTCHAR seven
ENCODING 55
SWIDTH 500 0
DWIDTH 19 0
BBX 18 26 3 0
BITMAP
7FFFC0
FFFFC0
FFFF80
FFFF00
000300
000600
000E00
000C00
001800
003800
003000
007000
00E000
00E000
01C000
038000
038000
070000
0F0000
0E0000
1E0000
3C0000
3C0000
7C0000
780000
F80000
ENDCHAR

STARTCHAR eight
ENCODING 56
SWIDTH 500 0
DWIDTH 19 0
BBX 17 26 1 0
BITMAP
007C00
03FF00
070F00
0E0780
1C0380
1C0380
3C0380
3C0300
3E0700
1F0E00
1FD800
0FF000
03F800
07FE00
0CFE00
383F00
701F00
700F00
E00F00
E00F00
E00E00
E00E00
F01C00
783800
3FE000
0F8000
ENDCHAR

STARTCHAR nine
ENCODING 57
SWIDTH 500 0
DWIDTH 19 0
BBX 18 26 1 0
BITMAP
00FC00
03FE00
070F00
0E0780
1E0780
3C07C0
3C07C0
7C07C0
7C07C0
7C07C0
7C07C0
7C0FC0
3E1780
3FF780
1FEF80
078F00
000F00
001F00
001E00
001C00
003C00
803800
407000
60E000
7F8000
3E0000
ENDCHAR

STARTCHAR colon
ENCODING 58
SWIDTH 250 0
DWIDTH 10 0
BBX 7 18 1 0
BITMAP
0C
1E
3E
3E
3C
08
00
00
00
00
00
00
20
78
F8
F8
F8
60
ENDCHAR

STARTCHAR semicolon
ENCODING 59
SWIDTH 250 0
DWIDTH 10 0
BBX 10 25 -2 -7
BITMAP
0380
07C0
07C0
07C0
07C0
0300
0000
0000
0000
0000
0000
0000
0000
0780
1F00
1F00
1E00
1E00
3C00
3800
7800
7000
E000
C000
8000
ENDCHAR

STARTCHAR less
ENCODING 60
SWIDTH 606 0
DWIDTH 23 0
BBX 19 20 2 3
BITMAP
000020
0001E0
0007E0
001FE0
007F80
01FE00
0FF800
3FE000
FF0000
F80000
FC0000
FF0000
3FC000
0FF000
03FE00
00FF80
001FE0
0007E0
0001E0
000060
ENDCHAR

STARTCHAR equal
ENCODING 61
SWIDTH 606 0
DWIDTH 23 0
BBX 19 10 2 8
BITMAP
FFFFE0
FFFFE0
FFFFE0
000000
000000
000000
000000
FFFFE0
FFFFE0
FFFFE0
ENDCHAR

STARTCHAR greater
ENCODING 62
SWIDTH 606 0
DWIDTH 23 0
BBX 19 20 2 3
BITMAP
800000
F00000
FC0000
FF0000
3FC000
0FF000
03FE00
00FF80
001FE0
0003E0
0007E0
001FE0
007F80
01FE00
0FF800
3FE000
FF0000
FC0000
F00000
C00000
ENDCHAR

STARTCHAR question
ENCODING 63
SWIDTH 444 0
DWIDTH 17 0
BBX 13 26 4 0
BITMAP
1F80
7FE0
7FF0
61F0
C0F8
80F8
00F8
00F8
01F0
01E0
03C0
0780
0E00
1C00
3800
3000
3000
1800
0000
0000
3000
7800
F800
F800
F000
6000
ENDCHAR

STARTCHAR at
ENCODING 64
SWIDTH 833 0
DWIDTH 32 0
BBX 28 29 2 -3
BITMAP
001FE000
00701C00
01C00200
03000100
0E000080
0C000040
18000040
30073860
301CB820
6038F820
6038F020
4070F020
C0F0F020
C0F0F020
C1E1E020
C1E1E040
C1E3E040
C1E3C080
41E5C100
41FBC310
61F1CC10
20E1F020
30000020
18000040
08000080
06000100
03000600
00E03800
001FC000
ENDCHAR

STARTCHAR A
ENCODING 65
SWIDTH 722 0
DWIDTH 27 0
BBX 28 26 -2 0
BITMAP
00007800
0000F800
0000F800
0001F800
0001B800
00037C00
00067C00
00067C00
000C7C00
000C7C00
00183C00
00303E00
00303E00
00603E00
007FFE00
00FFFE00
00C01E00
01801F00
03801F00
03001F00
06001F00
06001F00
0E001F00
1C001F80
3C001F80
FF80FFF0
ENDCHAR

STARTCHAR B
ENCODING 66
SWIDTH 667 0
DWIDTH 25 0
BBX 24 26 0 0
BITMAP
1FFFF0
03FFFC
01F03E
01F01F
01E01F
03E01F
03E01F
03E01F
03E03E
03E03C
03C078
07C7E0
07FFC0
07C1F8
07C07C
07803E
0F803E
0F803E
0F803E
0F803E
0F803C
0F807C
1F00F8
1F01F0
7FFFC0
FFFF00
ENDCHAR

STARTCHAR C
ENCODING 67
SWIDTH 685 0
DWIDTH 26 0
BBX 24 26 2 0
BITMAP
000FF8
007FFF
01F03E
03C00E
070006
0F0006
1E0004
3E0004
3C0000
7C0000
7C0000
FC0000
F80000
F80000
F80000
F80000
F80000
F80000
F80000
FC0000
7C0000
7E0008
3F0038
1FC1E0
0FFFC0
03FE00
ENDCHAR

STARTCHAR D
ENCODING 68
SWIDTH 778 0
DWIDTH 30 0
BBX 28 26 0 0
BITMAP
3FFFF800
07FFFF00
03E01F80
03E007C0
03E003E0
03E003E0
03C003F0
07C001F0
07C001F0
07C001F0
07C001F0
07C001F0
078001F0
0F8001F0
0F8003F0
0F8003E0
0F8003E0
0F8003C0
0F0007C0
1F000780
1F000F00
1F001F00
1F003C00
3F007800
FFFFE000
FFFF0000
ENDCHAR

STARTCHAR E
ENCODING 69
SWIDTH 611 0
DWIDTH 23 0
BBX 23 26 0 0
BITMAP
1FFFFE
03FFFC
03E00C
03E00C
03E00C
03E00C
03E000
03C000
07C000
07C000
07C000
07FFE0
07FFC0
078000
0F8000
0F8000
0F8000
0F8000
0F8000
0F0018
1F0018
1F0010
1F0030
1F0070
7FFFF0
FFFFF0
ENDCHAR

STARTCHAR F
ENCODING 70
SWIDTH 556 0
DWIDTH 21 0
BBX 23 26 -1 0
BITMAP
0FFFFE
01FFFE
01F00C
01F004
01F004
01F004
01F000
01E000
03E000
03E000
03E000
03E000
03E000
03FFF0
07FFE0
07C000
07C000
07C000
07C000
078000
078000
0F8000
0F8000
0F8000
1F8000
FFF800
ENDCHAR

STARTCHAR G
ENCODING 71
SWIDTH 778 0
DWIDTH 30 0
BBX 26 26 2 0
BITMAP
000FFC00
007FFF80
00F81F80
03C00700
07800300
0F000300
1E000300
3E000000
3C000000
7C000000
7C000000
7C000000
F8000000
F8000000
F8000000
F803FFC0
F8003F00
F8003E00
F8003E00
7C003E00
7C003C00
7E007C00
3F007C00
1F80FC00
07FFE000
01FE0000
ENDCHAR

STARTCHAR H
ENCODING 72
SWIDTH 778 0
DWIDTH 30 0
BBX 32 26 -1 0
BITMAP
0FFF0FFF
01F801F8
01F001F0
01F001F0
01F001F0
01F001F0
01F001E0
01E003E0
03E003E0
03E003E0
03E003E0
03FFFFE0
03FFFFC0
03C007C0
07C007C0
07C007C0
07C007C0
07C007C0
07C00780
07800F80
0F800F80
0F800F80
0F800F80
0F800F80
1FC01F80
FFF0FFF0
ENDCHAR

STARTCHAR I
ENCODING 73
SWIDTH 389 0
DWIDTH 15 0
BBX 16 26 0 0
BITMAP
1FFF
03F0
01F0
01F0
01E0
03E0
03E0
03E0
03E0
03E0
03C0
07C0
07C0
07C0
07C0
07C0
07C0
0F80
0F80
0F80
0F80
0F80
0F80
1F80
1F80
FFF0
ENDCHAR

STARTCHAR J
ENCODING 74
SWIDTH 389 0
DWIDTH 15 0
BBX 17 33 -1 -7
BITMAP
0FFF80
00FC00
00F800
00F800
00F800
00F800
01F000
01F000
01F000
01F000
01F000
01E000
03E000
03E000
03E000
03E000
03E000
03C000
07C000
07C000
07C000
07C000
07C000
078000
0F8000
0F8000
0F8000
0F0000
0F0000
1E0000
1E0000
3C0000
F00000
ENDCHAR

STARTCHAR K
ENCODING 75
SWIDTH 722 0
DWIDTH 27 0
BBX 29 26 0 0
BITMAP
1FFF03F8
01F803C0
01F00780
01F00E00
01F01C00
03E03800
03E07000
03E0E000
03E1C000
03E38000
03E70000
03CE0000
07DF0000
07DF0000
07DF8000
07CFC000
07C7C000
0787E000
0F83F000
0F81F800
0F80F800
0F80FC00
0F807E00
1F803E00
1F803F00
FFF01FC0
ENDCHAR

STARTCHAR L
ENCODING 76
SWIDTH 611 0
DWIDTH 23 0
BBX 21 26 0 0
BITMAP
1FFE00
03F000
03E000
03E000
03E000
03E000
03E000
03C000
07C000
07C000
07C000
07C000
07C000
078000
0F8000
0F8000
0F8000
0F8000
0F8000
0F0008
1F0018
1F0018
1F0010
1F0070
3FFFF0
FFFFF0
ENDCHAR

STARTCHAR M
ENCODING 77
SWIDTH 944 0
DWIDTH 36 0
BBX 38 27 -1 -1
BITMAP
0FF80007FC
01F8000FE0
00F8000FE0
00FC001FC0
00FC001BC0
01BC0037C0
01BC0077C0
01BE0067C0
013E00C7C0
033E00CF80
031F018F80
031F038F80
021F030F80
061F060F80
060F860F80
060F8C0F00
040F9C1F00
0C07981F00
0C07D01F00
0C07F01F00
1C07E01F00
1803E01E00
1803C03E00
1803C03E00
3803807F00
FF0181FFE0
0001000000
ENDCHAR

STARTCHAR N
ENCODING 78
SWIDTH 778 0
DWIDTH 30 0
BBX 32 26 -1 0
BITMAP
1FF001FF
03F00038
01F80038
01F80030
01FC0030
01FC0030
01BE0030
01BF0060
031F0060
031F8060
030F8060
030FC060
0307C040
0303E0C0
0603F0C0
0601F0C0
0601F8C0
0600FCC0
0600FCC0
06007F80
0E003F80
0C003F80
0C001F80
0C001F80
1E000F00
FF800700
ENDCHAR

STARTCHAR O
ENCODING 79
SWIDTH 833 0
DWIDTH 32 0
BBX 27 26 2 0
BITMAP
001FE000
00FFFC00
01E01F00
07C00F80
0F8007C0
1F0007C0
3E0003E0
3E0003E0
7E0003E0
7C0003E0
7C0003E0
FC0003E0
FC0003E0
F80007E0
F80007E0
F80007C0
F80007C0
F8000F80
F8000F80
7C001F00
7C001E00
7C003C00
3E007800
1F80F000
07FFC000
00FC0000
ENDCHAR

STARTCHAR P
ENCODING 80
SWIDTH 667 0
DWIDTH 25 0
BBX 25 26 0 0
BITMAP
1FFFF800
03FFFE00
01F03F00
01F01F80
01F00F80
01F00F80
01E00F80
03E00F80
03E00F80
03E00F00
03E01F00
03E01E00
03C03C00
07C8F800
07CFE000
07C00000
07C00000
07C00000
07800000
0F800000
0F800000
0F800000
0F800000
0F800000
1F800000
FFF80000
ENDCHAR

STARTCHAR Q
ENCODING 81
SWIDTH 833 0
DWIDTH 32 0
BBX 27 34 3 -8
BITMAP
000FE000
00FFFC00
01E01F00
07C00F80
0F8007C0
1F0007C0
1E0003E0
3E0003E0
7E0003E0
7C0003E0
7C0003E0
FC0003E0
FC0003E0
F80007E0
F80007E0
F80007C0
F80007C0
F8000F80
F8000F80
F8000F00
7C001E00
7C003C00
3E007800
1F80F000
07FFC000
00FC0000
07E00000
0FF80040
187F0040
101FC0C0
1007F180
1003FF80
0000FF00
00003E00
ENDCHAR

STARTCHAR R
ENCODING 82
SWIDTH 722 0
DWIDTH 27 0
BBX 27 26 -1 0
BITMAP
0FFFF800
03FFFE00
01F03F00
01F01F80
01F00F80
01F00F80
01F00F80
01E00F80
03E00F00
03E01F00
03E03C00
03E0F800
03EFC000
03CFC000
07C7C000
07C3E000
07C3F000
07C1F000
07C1F800
0780FC00
0F807C00
0F807E00
0F803E00
0F803F00
1F801F80
FFF01FE0
ENDCHAR

STARTCHAR S
ENCODING 83
SWIDTH 556 0
DWIDTH 21 0
BBX 19 26 1 0
BITMAP
007F00
01FFE0
0783C0
0E00C0
1C0040
1C0040
1C0040
3C0000
3C0000
3E0000
3F8000
1FFC00
1FFF00
0FFF80
03FFC0
001FC0
0007C0
0003C0
0003C0
400380
400380
400700
E00E00
F81C00
7FF800
1FC000
ENDCHAR

STARTCHAR T
ENCODING 84
SWIDTH 611 0
DWIDTH 23 0
BBX 23 26 2 0
BITMAP
FFFFFE
FFFFFE
E07C0E
C07C04
807804
80F804
80F80C
00F800
00F800
00F800
00F000
01F000
01F000
01F000
01F000
01F000
01E000
03E000
03E000
03E000
03E000
03E000
03E000
07C000
07E000
3FFC00
ENDCHAR

STARTCHAR U
ENCODING 85
SWIDTH 778 0
DWIDTH 30 0
BBX 29 26 2 0
BITMAP
FF80FFF8
1F800FC0
0F800F80
0F800F80
1F000F80
1F000F00
1F001F00
1F001F00
1F001F00
1E001F00
3E001F00
3E001E00
3E003E00
3E003E00
3E003E00
3E003E00
7C003E00
7C003C00
7C007C00
7C007C00
7C00FC00
7E037C00
3F0E7C00
3FFC7C00
1FF8FC00
07E0FF80
ENDCHAR

STARTCHAR V
ENCODING 86
SWIDTH 667 0
DWIDTH 25 0
BBX 26 26 2 0
BITMAP
FFF03FC0
1F800700
0F800600
0F800E00
0F800C00
0F801C00
0F801800
0F803800
07C03000
07C07000
07C06000
07C0E000
07C0C000
03C18000
03E18000
03E30000
03E30000
03E60000
03E60000
01EC0000
01FC0000
01F80000
01F80000
01F00000
01E00000
00E00000
ENDCHAR

STARTCHAR W
ENCODING 87
SWIDTH 1000 0
DWIDTH 38 0
BBX 38 27 2 0
BITMAP
0000180000
FFE01803FC
3F00380070
1F003C0070
1F003C0060
1F007C00E0
1F007C00C0
0F00FE00C0
0F80DE01C0
0F81BE0180
0F819F0180
0F831F0300
0F831F0300
0F861F0300
0F860F8600
0F8C0F8600
078C0F8C00
0798078C00
079807CC00
07F007D800
07F003D800
07E003F000
07E003F000
07C003F000
07C001E000
078001E000
038001E000
ENDCHAR

STARTCHAR X
ENCODING 88
SWIDTH 722 0
DWIDTH 27 0
BBX 30 26 -1 0
BITMAP
1FFF0FFC
03F801E0
01F803C0
00F80380
00FC0700
007C0E00
007E1C00
003E3800
003F3000
001F6000
001FC000
000F8000
000FC000
0007C000
000FE000
001DE000
003BF000
0071F000
00E1F800
01C0F800
0380FC00
03007C00
07007E00
0E003E00
3E003F00
FFC1FFE0
ENDCHAR

STARTCHAR Y
ENCODING 89
SWIDTH 611 0
DWIDTH 23 0
BBX 24 26 1 0
BITMAP
1E0007
7F000F
FF801F
9F803E
0FC038
07C070
07C0E0
03E0C0
03E180
03E180
01E300
01F300
01F600
00F600
00FC00
00FC00
00F800
00F800
00F800
00F800
00F800
00F000
01F000
01F000
01F800
1FFF00
ENDCHAR

STARTCHAR Z
ENCODING 90
SWIDTH 667 0
DWIDTH 25 0
BBX 25 26 0 0
BITMAP
0FFFFF80
0FFFFF80
0C003F00
0C007E00
08007E00
1800FC00
0001F800
0003F000
0007E000
0007E000
000FC000
001F8000
003F0000
007E0000
007E0000
00FC0000
01F80000
03F00000
03F00000
07E00100
0FC00300
1F800300
3F000200
7E000E00
7FFFFE00
FFFFFE00
ENDCHAR

STARTCHAR bracketleft
ENCODING 91
SWIDTH 333 0
DWIDTH 13 0
BBX 14 32 -1 -5
BITMAP
07FC
07C0
0780
0780
0780
0F80
0F00
0F00
0F00
0F00
0F00
0F00
0E00
1E00
1E00
1E00
1E00
1E00
1E00
1C00
3C00
3C00
3C00
3C00
3C00
3C00
7C00
7800
7800
7800
7C00
FFC0
ENDCHAR

STARTCHAR backslash
ENCODING 92
SWIDTH 606 0
DWIDTH 23 0
BBX 14 33 4 -5
BITMAP
F800
7800
7800
7800
3C00
3C00
3C00
3E00
1E00
1E00
1F00
0F00
0F00
0F00
0F80
0780
0780
07C0
03C0
03C0
03C0
03E0
01E0
01E0
01F0
00F0
00F0
00F0
0078
0078
0078
007C
007C
ENDCHAR

STARTCHAR bracketright
ENCODING 93
SWIDTH 333 0
DWIDTH 13 0
BBX 13 32 0 -5
BITMAP
0FF8
00F8
00F8
00F0
00F0
00F0
00F0
00F0
00F0
00F0
01E0
01E0
01E0
01E0
01E0
01E0
01C0
03C0
03C0
03C0
03C0
03C0
03C0
03C0
0780
0780
0780
0780
0780
0780
0F80
FF80
ENDCHAR

STARTCHAR asciicircum
ENCODING 94
SWIDTH 606 0
DWIDTH 23 0
BBX 19 15 3 11
BITMAP
01E000
03F000
03F000
07F800
07F800
0FBC00
0F3C00
1F1E00
1E1E00
3E0F00
3C0F00
7C0780
780780
F803C0
F003E0
ENDCHAR

STARTCHAR underscore
ENCODING 95
SWIDTH 500 0
DWIDTH 19 0
BBX 19 2 0 -5
BITMAP
FFFFE0
FFFFE0
ENDCHAR

STARTCHAR quoteleft
ENCODING 96
SWIDTH 278 0
DWIDTH 11 0
BBX 9 12 2 15
BITMAP
0080
0180
0300
0700
0E00
1E00
1C00
3C00
3C00
7C00
F800
4000
ENDCHAR

STARTCHAR a
ENCODING 97
SWIDTH 556 0
DWIDTH 21 0
BBX 18 18 2 0
BITMAP
007CC0
01FF80
030F80
0E0780
1C0F00
3C0F00
3C0F00
781F00
781E00
783600
786E00
F05E00
F09C00
F19C40
F33CC0
FE3F80
FC3E00
703800
ENDCHAR

STARTCHAR b
ENCODING 98
SWIDTH 537 0
DWIDTH 20 0
BBX 17 28 2 0
BITMAP
018000
3F0000
FF0000
1F0000
1F0000
1E0000
1E0000
1E0000
1E0000
3E0000
3C0F00
3C3F80
3C7F80
3D8F80
3F0780
7A0780
7C0780
7C0780
780F80
780F00
F00F00
F01E00
F01E00
F03C00
F03800
F87000
7FC000
3E0000
ENDCHAR

STARTCHAR c
ENCODING 99
SWIDTH 444 0
DWIDTH 17 0
BBX 15 18 2 0
BITMAP
00FE
03FE
0F1E
1E04
3C04
3804
7800
7800
F800
F800
F000
F000
F000
F004
F818
FC70
7FC0
3F00
ENDCHAR

STARTCHAR d
ENCODING 100
SWIDTH 556 0
DWIDTH 21 0
BBX 20 28 2 0
BITMAP
000030
0001F0
001FE0
0001E0
0003E0
0003E0
0003C0
0003C0
0003C0
0003C0
00FFC0
03FF80
070780
0E0780
1C0780
3C0F00
3C0F00
780F00
781F00
781700
F82E00
F05E00
F0DE00
F19E40
F31EC0
FE3F80
FC3E00
701C00
ENDCHAR

STARTCHAR e
ENCODING 101
SWIDTH 444 0
DWIDTH 17 0
BBX 15 18 2 0
BITMAP
0078
03FC
071E
0E1E
1C1E
3C1C
7838
7870
79C0
7E00
F000
F000
F000
F00C
F838
FFE0
7F80
1C00
ENDCHAR

STARTCHAR f
ENCODING 102
SWIDTH 333 0
DWIDTH 13 0
BBX 23 38 -6 -10
BITMAP
00001E
00007E
0000FE
00018C
000384
000700
000F00
000F00
001F00
001E00
007FF0
01FFF0
003E00
003E00
003C00
003C00
003C00
007C00
007800
007800
007800
007800
00F000
00F000
00F000
00F000
00E000
01E000
01E000
01C000
01C000
018000
038000
230000
660000
7C0000
780000
E00000
ENDCHAR

STARTCHAR g
ENCODING 103
SWIDTH 500 0
DWIDTH 19 0
BBX 22 28 -2 -10
BITMAP
003E00
00FFFC
01C3FC
0381E0
0781E0
0701E0
0F01E0
0F01E0
0F01C0
0F03C0
0F0780
078E00
03F800
006000
00E000
03F000
01F800
01FE00
077F00
1C3F80
700FC0
7007C0
E003C0
E003C0
F00380
F00700
7C1E00
1FF800
ENDCHAR

STARTCHAR h
ENCODING 104
SWIDTH 556 0
DWIDTH 21 0
BBX 18 28 2 0
BITMAP
00C000
0F8000
3F8000
0F8000
078000
0F0000
0F0000
0F0000
0F0000
0F0000
0E03C0
1E0FC0
1E1FC0
1E77C0
1CC780
1C8780
3D0780
3E0F00
3E0F00
3C1E00
7C1E00
781E00
781E00
783C40
F03CC0
F03F00
F03E00
E03800
ENDCHAR

STARTCHAR i
ENCODING 105
SWIDTH 333 0
DWIDTH 13 0
BBX 11 27 1 0
BITMAP
01C0
01E0
03E0
03E0
01C0
0000
0000
0000
0000
0380
0780
1F80
3780
CF00
4F00
0F00
0F00
0E00
1E00
1E00
1E00
3C00
3C40
3D80
3F00
3E00
3800
ENDCHAR

STARTCHAR j
ENCODING 106
SWIDTH 333 0
DWIDTH 13 0
BBX 15 37 -2 -11
BITMAP
001C
003E
003E
003C
001C
0000
0000
0000
0038
00F8
01F8
03F8
0CF8
08F0
00F0
00F0
01F0
01E0
01E0
01E0
01E0
03C0
03C0
03C0
03C0
0380
0780
0780
0700
0700
0700
0E00
0E00
0C00
9800
F000
E000
ENDCHAR

STARTCHAR k
ENCODING 107
SWIDTH 556 0
DWIDTH 21 0
BBX 20 28 1 0
BITMAP
006000
07E000
3FC000
07C000
07C000
07C000
078000
078000
078000
078000
0F80F0
0F03E0
0F07E0
0F0C00
0F1800
1E3000
1E7000
1EF000
1CF000
1F7800
3E7800
3C7C00
3C3C00
3C3C00
783E60
781FC0
781F00
C00C00
ENDCHAR

STARTCHAR l
ENCODING 108
SWIDTH 333 0
DWIDTH 13 0
BBX 10 28 3 0
BITMAP
00C0
1F80
3F80
0F80
0F80
0F00
0F00
0F00
0F00
1E00
1E00
1E00
1E00
3C00
3C00
3C00
3C00
7800
7800
7800
7800
F800
F000
F100
FB00
FC00
F800
E000
ENDCHAR

STARTCHAR m
ENCODING 109
SWIDTH 833 0
DWIDTH 32 0
BBX 30 18 1 0
BITMAP
0301C030
0F07C0F8
3F0FC3F8
7F1BC7F8
CF23CCF8
0E4390F0
1E83A0F0
1F83E1F0
1D0741E0
1E0781E0
1E0781E0
3E0F03E0
3C0F03C0
3C0F03C4
7C0E07CC
781E07F0
781E07E0
703E0380
ENDCHAR

STARTCHAR n
ENCODING 110
SWIDTH 556 0
DWIDTH 21 0
BBX 20 18 1 0
BITMAP
0300C0
0F03E0
3F0FE0
7F1FE0
CF33C0
0E43C0
1E83C0
1F87C0
1D0780
1F0780
1E0F80
3E0F00
3C0F00
3C1F10
7C1F70
781FC0
781F80
F01E00
ENDCHAR

STARTCHAR o
ENCODING 111
SWIDTH 556 0
DWIDTH 21 0
BBX 17 18 2 0
BITMAP
007C00
03FF00
0E0F80
1C0F80
3C0780
7C0780
780780
780780
F80780
F00F80
F00F00
F00F00
F00F00
F01E00
F83C00
F87800
7FE000
1F0000
ENDCHAR

STARTCHAR p
ENCODING 112
SWIDTH 556 0
DWIDTH 21 0
BBX 20 28 0 -10
BITMAP
01C0E0
07C3F0
0FC7F0
7F88F0
2790F0
07A0F0
0740F0
07C0F0
0781F0
0F81E0
0F01E0
0F03C0
0F03C0
1E0380
1E0700
1F0E00
1FF800
3FE000
3C0000
3C0000
3C0000
780000
780000
780000
780000
F80000
F80000
800000
ENDCHAR

STARTCHAR q
ENCODING 113
SWIDTH 537 0
DWIDTH 20 0
BBX 18 28 1 -10
BITMAP
007E40
01FFC0
030780
0E0780
1E0780
3C0780
3C0F00
3C0F00
781F00
781F00
782700
F06E00
F05E00
F09E00
F31E00
FE3C00
F83C00
703C00
003C00
007C00
007800
007800
007800
007800
00F800
00F000
00F000
018000
ENDCHAR

STARTCHAR r
ENCODING 114
SWIDTH 389 0
DWIDTH 15 0
BBX 15 18 1 0
BITMAP
030E
0F1E
3F3C
7F7C
CF7C
0EC4
1E80
1D00
1F00
1E00
1E00
3E00
3C00
3C00
3C00
7C00
7800
6000
ENDCHAR

STARTCHAR s
ENCODING 115
SWIDTH 444 0
DWIDTH 17 0
BBX 16 18 0 0
BITMAP
00FC
03FF
0E0E
1C06
1C02
3C00
3E00
3FE0
1FFC
0FFC
01FE
003E
401E
401C
601C
7830
FFE0
3F80
ENDCHAR

STARTCHAR t
ENCODING 116
SWIDTH 389 0
DWIDTH 15 0
BBX 14 25 1 0
BITMAP
0060
03E0
03C0
03C0
07C0
0780
0780
3FFC
FFFC
0780
0F00
0F00
0F00
0F00
1E00
1E00
1E00
1E00
3E00
3C10
3C30
3CC0
3F80
3F00
1C00
ENDCHAR

STARTCHAR u
ENCODING 117
SWIDTH 556 0
DWIDTH 21 0
BBX 19 18 1 0
BITMAP
0703E0
1F03C0
3F03C0
DF0780
8E0780
0E0780
1E0F80
1E0F00
1C1F00
1C1700
3C3700
3C2E00
384E00
789E20
799EC0
7F1F80
7C1E00
381C00
ENDCHAR

STARTCHAR v
ENCODING 118
SWIDTH 556 0
DWIDTH 21 0
BBX 19 18 1 0
BITMAP
3FF1C0
3FE3E0
7F47E0
40C0E0
C180E0
0380E0
0700E0
0700C0
0F00C0
0E0180
1E0180
1E0300
1E0300
1E0600
1F0C00
1F1800
0FF000
07C000
ENDCHAR

STARTCHAR w
ENCODING 119
SWIDTH 833 0
DWIDTH 32 0
BBX 29 18 1 0
BITMAP
7FE07060
7FC1E0F0
7EC1E3F8
C181E038
8303C038
0703C038
0E03C038
0E03C030
1E07C070
1C078060
3C038060
3C0B80C0
3C0B8080
3C178180
3C278300
3E67CE00
1F83F800
0F01F000
ENDCHAR

STARTCHAR x
ENCODING 120
SWIDTH 500 0
DWIDTH 19 0
BBX 19 18 0 0
BITMAP
0F80E0
1FC1E0
1FC3E0
33E640
21EC00
01E800
01F000
00E000
00F000
00F000
01F000
017000
02F000
067840
CC7980
F87F00
F07E00
E03800
ENDCHAR

STARTCHAR y
ENCODING 121
SWIDTH 556 0
DWIDTH 21 0
BBX 20 28 1 -10
BITMAP
070070
1F01E0
3F01E0
CF03E0
8F03C0
0F03C0
0F03C0
0F0780
0E0780
1E0F80
1E0F80
1E1B00
1E3700
1E2F00
1ECE00
1F9E00
1F1E00
1E1C00
001C00
003C00
003800
003000
007000
606000
E0C000
F18000
FF0000
3C0000
ENDCHAR

STARTCHAR z
ENCODING 122
SWIDTH 500 0
DWIDTH 19 0
BBX 17 18 1 0
BITMAP
1F8180
1FFF00
1FFF00
31F600
200C00
001800
003000
006000
008000
030000
060000
0C0000
180100
37C200
7FFE00
FFFE00
83FE00
003C00
ENDCHAR

STARTCHAR braceleft
ENCODING 123
SWIDTH 333 0
DWIDTH 13 0
BBX 16 35 1 -8
BITMAP
000F
0038
00F0
01F0
01E0
03E0
03E0
03E0
03E0
07E0
07E0
07C0
07C0
0780
0F00
1E00
3800
C000
3800
1C00
1E00
1E00
1E00
3E00
3E00
7C00
7C00
FC00
F800
F800
F000
F000
7000
3800
1E00
ENDCHAR

STARTCHAR bar
ENCODING 124
SWIDTH 606 0
DWIDTH 23 0
BBX 4 34 10 -7
BITMAP
F0
F0
F0
F0
F0
F0
F0
F0
F0
F0
F0
F0
F0
F0
F0
F0
F0
F0
F0
F0
F0
F0
F0
F0
F0
F0
F0
F0
F0
F0
F0
F0
F0
F0
ENDCHAR

STARTCHAR braceright
ENCODING 125
SWIDTH 333 0
DWIDTH 13 0
BBX 16 35 -3 -8
BITMAP
0078
001E
000E
000F
000F
001F
001F
003F
003E
003E
007C
007C
0078
0078
0038
003C
000E
0003
001C
0070
00F0
01E0
03E0
03E0
07E0
07E0
07C0
07C0
07C0
07C0
0780
0F00
0E00
3C00
F000
ENDCHAR

STARTCHAR asciitilde
ENCODING 126
SWIDTH 606 0
DWIDTH 23 0
BBX 21 7 1 9
BITMAP
1F0018
3FC018
7FF830
7FFFF0
60FFF0
401FE0
C003C0
ENDCHAR

STARTCHAR space
ENCODING 160
SWIDTH 250 0
DWIDTH 12 0
BBX 0 0 0 0
BITMAP
ENDCHAR

STARTCHAR Aogonek
ENCODING 161
SWIDTH 722 0
DWIDTH 27 0
BBX 27 34 -1 -8
BITMAP
0000F000
0000F000
0001F800
0001F800
00037800
0006F800
0006F800
000C7800
000C7C00
00187C00
00187C00
00307C00
00607C00
00403C00
00FFFE00
00FFFE00
01803E00
03803E00
03003E00
06003E00
06001E00
0C001F00
1C001F00
1C001F00
3C003F80
FF80FFE0
00000400
00000800
00001800
00003000
00003000
00003980
00003F00
00000C00
ENDCHAR

STARTCHAR afii240
ENCODING 162
SWIDTH 500 0
DWIDTH 19 0
BBX 22 17 -2 0
BITMAP
0FFBFC
03F0E0
03E0C0
03E100
03E200
03C600
07DE00
07BE00
07BF00
0FDF00
0F9F00
0F9F00
0F0F80
1F0F80
1F0F80
3F1FC0
FFBFF0
ENDCHAR

STARTCHAR Rcommaaccent
ENCODING 163
SWIDTH 722 0
DWIDTH 27 0
BBX 27 36 -1 -10
BITMAP
0FFFF800
03FFFE00
01F03F00
01F01F80
01F00F80
01F00F80
01F00F80
01E00F80
03E00F00
03E01F00
03E03C00
03E0F800
03EFC000
03CFC000
07C7C000
07C3E000
07C3F000
07C1F000
07C1F800
0780FC00
0F807C00
0F807E00
0F803E00
0F803F00
1F801F80
FFF01FE0
00000000
00000000
00020000
001E0000
001C0000
001C0000
00380000
00300000
00200000
00400000
ENDCHAR

STARTCHAR currency
ENCODING 164
SWIDTH 606 0
DWIDTH 23 0
BBX 19 19 3 4
BITMAP
23F880
77FEC0
FFFFE0
3FFF80
7E0FC0
7C07C0
F803E0
F001E0
F001E0
F001E0
F001E0
F001E0
7803E0
7C07C0
3E0F80
7FFFC0
FFFFE0
77FEC0
23F880
ENDCHAR

STARTCHAR Itilde
ENCODING 165
SWIDTH 389 0
DWIDTH 15 0
BBX 17 34 0 0
BITMAP
03C180
07FB00
0CFF00
083E00
000000
000000
000000
000000
1FFF00
03F000
01F000
01F000
01E000
03E000
03E000
03E000
03E000
03E000
03C000
07C000
07C000
07C000
07C000
07C000
07C000
0F8000
0F8000
0F8000
0F8000
0F8000
0F8000
1F8000
1F8000
FFF000
ENDCHAR

STARTCHAR Lcommaaccent
ENCODING 166
SWIDTH 611 0
DWIDTH 23 0
BBX 21 36 0 -10
BITMAP
1FFE00
03F000
03E000
03E000
03E000
03E000
03E000
03C000
07C000
07C000
07C000
07C000
07C000
078000
0F8000
0F8000
0F8000
0F8000
0F8000
0F0008
1F0018
1F0018
1F0010
1F0070
3FFFF0
FFFFF0
000000
000000
003800
007000
00F000
00E000
00C000
01C000
018000
020000
ENDCHAR

STARTCHAR section
ENCODING 167
SWIDTH 556 0
DWIDTH 21 0
BBX 17 33 1 -7
BITMAP
00FC00
03FF80
060780
0C0380
0C0180
1C0180
1E0100
1F0000
1F8000
07E000
0FF800
1DFC00
387F00
703F00
700F80
700780
780380
7C0380
3F0300
3FC700
0FEE00
07F800
01FC00
007E00
001E00
401E00
400E00
C00E00
C00C00
E01800
F07000
7FE000
0F0000
ENDCHAR

STARTCHAR hungarumlaut
ENCODING 168
SWIDTH 333 0
DWIDTH 13 0
BBX 16 7 2 19
BITMAP
0306
070F
0F1E
1E3C
3870
70E0
C180
ENDCHAR

STARTCHAR Scaron
ENCODING 169
SWIDTH 556 0
DWIDTH 21 0
BBX 19 34 1 0
BITMAP
0380E0
01C180
00E700
00F600
007E00
003C00
000000
000000
007F00
01FFE0
0783C0
0E00C0
1C0040
1C0040
1C0040
3C0000
3C0000
3E0000
3F8000
1FFC00
1FFF00
0FFF80
03FFC0
001FC0
0007C0
0003C0
0003C0
400380
400380
400700
E00E00
F81C00
7FF800
1FC000
ENDCHAR

STARTCHAR Emacron
ENCODING 170
SWIDTH 611 0
DWIDTH 23 0
BBX 23 32 0 0
BITMAP
00FFF0
00FFF0
000000
000000
000000
000000
1FFFFE
03FFFC
03E00C
03E00C
03E00C
03E00C
03E000
03C000
07C000
07C000
07C000
07FFE0
07FFC0
078000
0F8000
0F8000
0F8000
0F8000
0F8000
0F0018
1F0018
1F0010
1F0030
1F0070
7FFFF0
FFFFF0
ENDCHAR

STARTCHAR Gcommaaccent
ENCODING 171
SWIDTH 778 0
DWIDTH 30 0
BBX 26 36 2 -10
BITMAP
000FFC00
007FFF80
00F81F80
03C00700
07800300
0F000300
1E000300
3E000000
3C000000
7C000000
7C000000
7C000000
F8000000
F8000000
F8000000
F803FFC0
F8003F00
F8003E00
F8003E00
7C003E00
7C003C00
7E007C00
3F007C00
1F80FC00
07FFE000
01FE0000
00000000
00000000
003C0000
00380000
00380000
00700000
00600000
00E00000
01C00000
00800000
ENDCHAR

STARTCHAR afii237
ENCODING 172
SWIDTH 611 0
DWIDTH 23 0
BBX 23 25 3 0
BITMAP
1FFFFE
1FFFFE
3C3F1E
303E0C
207E04
607E04
407C04
00FC00
00FC00
00F800
01F800
FFFFF0
01F000
01F000
03F000
03F000
03E000
07E000
07E000
07C000
0FC000
0FC000
0FC000
1FC000
FFF800
ENDCHAR

STARTCHAR hyphen
ENCODING 173
SWIDTH 389 0
DWIDTH 15 0
BBX 12 4 1 7
BITMAP
7FF0
7FF0
FFE0
FFE0
ENDCHAR

STARTCHAR Zcaron
ENCODING 174
SWIDTH 667 0
DWIDTH 25 0
BBX 25 35 0 0
BITMAP
00300C00
00181800
001C7000
000EE000
000FC000
00078000
00070000
00000000
00000000
0FFFFF80
0FFFFF80
0C003F00
0C007E00
08007E00
1800FC00
0001F800
0003F000
0007E000
0007E000
000FC000
001F8000
003F0000
007E0000
007E0000
00FC0000
01F80000
03F00000
03F00000
07E00100
0FC00300
1F800300
3F000200
7E000E00
7FFFFE00
FFFFFE00
ENDCHAR

STARTCHAR macron
ENCODING 175
SWIDTH 333 0
DWIDTH 13 0
BBX 12 2 3 22
BITMAP
FFF0
FFF0
ENDCHAR

STARTCHAR degree
ENCODING 176
SWIDTH 396 0
DWIDTH 15 0
BBX 12 12 3 14
BITMAP
1F80
3FC0
70E0
E070
C030
C030
C030
C030
6060
70E0
3FC0
0F80
ENDCHAR

STARTCHAR aogonek
ENCODING 177
SWIDTH 556 0
DWIDTH 21 0
BBX 18 25 2 -7
BITMAP
00FC80
01FF80
070F80
0E0F00
1C0F00
3C0F00
3C1F00
781E00
783E00
782E00
705E00
F0DC00
F0BC00
F13C40
F23D80
FE3F00
F83E00
701800
002000
006000
00C000
00C000
00E200
00FC00
003000
ENDCHAR

STARTCHAR ogonek
ENCODING 178
SWIDTH 333 0
DWIDTH 13 0
BBX 7 8 -1 -8
BITMAP
10
20
60
C0
C0
E2
FC
30
ENDCHAR

STARTCHAR rcommaaccent
ENCODING 179
SWIDTH 389 0
DWIDTH 15 0
BBX 15 28 1 -10
BITMAP
030E
0F1E
3F3C
7F3C
CF7C
0EC4
0E80
1F00
1C00
1E00
1E00
1E00
3C00
3C00
3C00
3C00
7C00
7800
4000
0000
0200
1E00
1C00
1C00
3800
3000
3000
6000
ENDCHAR

STARTCHAR acute
ENCODING 180
SWIDTH 333 0
DWIDTH 13 0
BBX 9 6 5 20
BITMAP
0380
0780
0F00
1C00
3800
E000
ENDCHAR

STARTCHAR itilde
ENCODING 181
SWIDTH 333 0
DWIDTH 13 0
BBX 14 25 1 0
BITMAP
1F04
3FCC
33F8
60F0
0000
0000
0000
0380
0780
1F80
3F80
C780
4F80
0F00
0F00
0F00
1E00
1E00
1E00
3E00
3C40
3CC0
3F80
3E00
3C00
ENDCHAR

STARTCHAR lcommaaccent
ENCODING 182
SWIDTH 333 0
DWIDTH 13 0
BBX 12 38 1 -10
BITMAP
0030
03E0
0FE0
03E0
03E0
03C0
03C0
03C0
03C0
0780
0780
0780
0780
0F00
0F00
0F00
0F00
1E00
1E00
1E00
1E00
3E00
3C00
3C40
3CC0
3F80
3F00
3C00
0000
0000
0400
3C00
3800
3800
7000
6000
C000
8000
ENDCHAR

STARTCHAR caron
ENCODING 183
SWIDTH 333 0
DWIDTH 13 0
BBX 12 6 4 20
BITMAP
C070
E1C0
7380
3B00
3E00
1C00
ENDCHAR

STARTCHAR commaaccent
ENCODING 184
SWIDTH 333 0
DWIDTH 13 0
BBX 9 11 0 -13
BITMAP
0180
0F00
0F00
1E00
1E00
1C00
3800
3800
7000
6000
C000
ENDCHAR

STARTCHAR scaron
ENCODING 185
SWIDTH 444 0
DWIDTH 17 0
BBX 18 26 0 0
BITMAP
0601C0
030700
018E00
01DC00
00F800
00F000
000000
000000
00FC00
03FF00
0E0E00
1C0600
1C0200
3C0000
3E0000
3FE000
1FFC00
0FFC00
01FE00
003E00
401E00
401C00
601C00
783000
FFE000
3F8000
ENDCHAR

STARTCHAR emacron
ENCODING 186
SWIDTH 444 0
DWIDTH 17 0
BBX 16 24 2 0
BITMAP
0FFF
0FFF
0000
0000
0000
0000
0078
03FC
071E
0E1E
1C1E
3C1C
7838
7870
79C0
7E00
F000
F000
F000
F00C
F838
FFE0
7F80
1C00
ENDCHAR

STARTCHAR gcommaaccent
ENCODING 187
SWIDTH 500 0
DWIDTH 19 0
BBX 22 39 -2 -10
BITMAP
000040
0000C0
000180
000380
000300
000700
000F00
001F00
000000
000000
000E00
007FFC
01C3FC
0381E0
0781E0
0701E0
0F01E0
0F01E0
0F01C0
0F03C0
0F0780
078F00
03F800
006000
00E000
01E000
03F800
01FC00
03FF00
0E7F80
381F80
700FC0
E007C0
E003C0
E003C0
F00780
700700
7E3E00
1FF800
ENDCHAR

STARTCHAR afii253
ENCODING 188
SWIDTH 278 0
DWIDTH 11 0
BBX 11 22 1 0
BITMAP
0040
00C0
01C0
0380
0F80
3FE0
6FE0
1F00
1F00
1E00
3E00
FFC0
3E00
3C00
7C00
7C00
7800
7880
F900
FA00
FC00
7800
ENDCHAR

STARTCHAR afii238
ENCODING 189
SWIDTH 775 0
DWIDTH 29 0
BBX 30 26 -1 0
BITMAP
03FF07C0
007E1FE0
007E70F0
007EC078
007D807C
007F007C
00FE007C
00FC007C
00F800FC
00F800FC
01F800FC
01F800FC
01F001FC
03F001F8
03F001F8
03E001F8
03E003F0
07E003F0
07E003E0
07C007E0
0FC1C7C0
0FC3E780
0F83E700
1F83CE00
1FC3CC00
FFF1F000
ENDCHAR

STARTCHAR zcaron
ENCODING 190
SWIDTH 500 0
DWIDTH 19 0
BBX 18 26 1 0
BITMAP
0301C0
018700
01CE00
00FC00
00F800
007000
000000
000000
1F8180
1FFF00
1FFF00
31F600
200C00
001800
003000
006000
008000
030000
060000
0C0000
180100
37C200
7FFE00
FFFE00
83FE00
003C00
ENDCHAR

STARTCHAR afii254
ENCODING 191
SWIDTH 477 0
DWIDTH 18 0
BBX 19 25 -1 -8
BITMAP
3FC3C0
0FC7E0
0F8FE0
0F93E0
0FA3C0
0F47C0
1F47C0
1F87C0
1F0F80
3F0F80
3E0F80
3E0F00
3C1F00
7C1F00
7C1E00
783E00
F83E00
003C00
007C00
007800
007800
0C7000
1EF000
1CE000
0F8000
ENDCHAR

STARTCHAR Amacron
ENCODING 192
SWIDTH 722 0
DWIDTH 27 0
BBX 28 32 -2 0
BITMAP
0007FFC0
0007FF80
00000000
00000000
00000000
00000000
00007800
0000F800
0000F800
0001F800
0001B800
00037C00
00067C00
00067C00
000C7C00
000C7C00
00183C00
00303E00
00303E00
00603E00
007FFE00
00FFFE00
00C01E00
01801F00
03801F00
03001F00
06001F00
06001F00
0E001F00
1C001F80
3E001F80
FF80FFF0
ENDCHAR

STARTCHAR Aacute
ENCODING 193
SWIDTH 722 0
DWIDTH 27 0
BBX 28 34 -2 0
BITMAP
00000700
00000F00
00001E00
00003C00
00007000
0001C000
00000000
00000000
00007800
0000F800
0000F800
0001F800
0001B800
00037C00
00067C00
00067C00
000C7C00
000C7C00
00183C00
00303E00
00303E00
00603E00
007FFE00
00FFFE00
00C01E00
01801F00
03801F00
03001F00
06001F00
06001F00
0E001F00
1C001F80
3E001F80
FF80FFF0
ENDCHAR

STARTCHAR Acircumflex
ENCODING 194
SWIDTH 722 0
DWIDTH 27 0
BBX 28 34 -2 0
BITMAP
00003800
00007C00
0000EC00
0001CE00
00030600
000E0300
00000000
00000000
00007800
0000F800
0000F800
0001F800
0001B800
00037C00
00067C00
00067C00
000C7C00
000C7C00
00183C00
00303E00
00303E00
00603E00
007FFE00
00FFFE00
00C01E00
01801F00
03801F00
03001F00
06001F00
06001F00
0E001F00
1C001F80
3E001F80
FF80FFF0
ENDCHAR

STARTCHAR Atilde
ENCODING 195
SWIDTH 722 0
DWIDTH 27 0
BBX 28 33 -2 0
BITMAP
0003E0C0
0007F980
00067F00
000C1E00
00000000
00000000
00000000
00007800
0000F800
0000F800
0001F800
0001B800
00037C00
00067C00
00067C00
000C7C00
000C7C00
00183C00
00303E00
00303E00
00603E00
007FFE00
00FFFE00
00C01E00
01801F00
03801F00
03001F00
06001F00
06001F00
0E001F00
1C001F80
3E001F80
FF80FFF0
ENDCHAR

STARTCHAR Adieresis
ENCODING 196
SWIDTH 722 0
DWIDTH 27 0
BBX 28 33 -2 0
BITMAP
00030300
00078780
00078780
00078780
00030300
00000000
00000000
00007800
0000F800
0000F800
0001F800
0001BC00
00037C00
00067C00
00067C00
000C7C00
000C7C00
00183C00
00303E00
00303E00
00603E00
007FFE00
00FFFE00
01C01E00
01801F00
03001F00
03001F00
06001F00
06001F00
0C001F00
1C001F80
3E001F80
FF80FFF0
ENDCHAR

STARTCHAR Aring
ENCODING 197
SWIDTH 722 0
DWIDTH 27 0
BBX 28 36 -2 0
BITMAP
00007800
0000FC00
0001CE00
00018600
00018600
0001CE00
0000FC00
00007800
00000000
00000000
0000F800
0000F800
0001F800
0001F800
00037800
0006F800
0006FC00
000C7C00
000C7C00
00187C00
00107C00
00307C00
00607C00
00403E00
00FFFE00
00FFFE00
01803E00
03803E00
03003E00
06001F00
06001F00
0C001F00
1C001F00
1C001F00
3C001F80
FF81FFF0
ENDCHAR

STARTCHAR AE
ENCODING 198
SWIDTH 944 0
DWIDTH 36 0
BBX 36 26 -1 0
BITMAP
0007FFFFF0
0001FFFFF0
0000EF8030
0000CF8030
00018F8030
00018F8030
00030F8000
00070F8000
00060F8000
000C1F0000
001C1F0000
00181F0000
00301FFF80
00701FFF00
00601F0000
00FFFE0000
00C03E0000
01803E0000
03803E0000
03003E0000
06003C0040
0E007C0040
0C007C00C0
1C007C01C0
3C00FFFFC0
FF83FFFF80
ENDCHAR

STARTCHAR Iogonek
ENCODING 199
SWIDTH 389 0
DWIDTH 15 0
BBX 16 34 0 -8
BITMAP
1FFF
01F8
01F0
01F0
01F0
01F0
03E0
03E0
03E0
03E0
03E0
03E0
07C0
07C0
07C0
07C0
07C0
07C0
0F80
0F80
0F80
0F80
0F80
0F80
1F80
FBF0
0600
0C00
1800
3800
3800
38C0
1F80
0E00
ENDCHAR

STARTCHAR Ccaron
ENCODING 200
SWIDTH 685 0
DWIDTH 26 0
BBX 24 34 2 0
BITMAP
006038
003060
0019C0
001F80
000F80
000F00
000000
000000
000FF8
007FFF
01F03E
03C00E
070006
0F0006
1E0004
3E0004
3C0000
7C0000
7C0000
FC0000
F80000
F80000
F80000
F80000
F80000
F80000
F80000
FC0000
7C0000
7E0008
3F0038
1FC1E0
0FFFC0
03FE00
ENDCHAR

STARTCHAR Eacute
ENCODING 201
SWIDTH 611 0
DWIDTH 23 0
BBX 23 35 0 0
BITMAP
0000C0
0001E0
0003E0
0007C0
000F00
001C00
003000
000000
000000
1FFFFE
03FFFC
03E00C
03E00C
03E00C
03E00C
03E000
03C000
07C000
07C000
07C000
07FFE0
07FFC0
078000
0F8000
0F8000
0F8000
0F8000
0F8000
0F0018
1F0018
1F0010
1F0030
1F0070
7FFFF0
FFFFF0
ENDCHAR

STARTCHAR Eogonek
ENCODING 202
SWIDTH 611 0
DWIDTH 23 0
BBX 23 34 0 -8
BITMAP
1FFFFE
03FFFC
03E00C
03E00C
03E00C
03E00C
03E000
03C000
07C000
07C000
07C000
07FFE0
07FFC0
078000
0F8000
0F8000
0F8000
0F8000
0F8000
0F0018
1F0018
1F0010
1F0030
1F0070
7FFFF0
FFFFF0
000300
000600
000C00
001C00
001C00
001C60
000FC0
000700
ENDCHAR

STARTCHAR Edieresis
ENCODING 203
SWIDTH 611 0
DWIDTH 23 0
BBX 23 33 0 0
BITMAP
006060
00F0F0
00F0F0
00F0F0
006060
000000
000000
1FFFFE
03FFFE
01F00E
03E004
03E004
03E004
03E000
03E000
03C000
07C000
07C000
07FFE0
07FFE0
07C000
078000
078000
0F8000
0F8000
0F8000
0F8008
0F8018
0F0018
1F0018
1F0070
7FFFF0
FFFFF0
ENDCHAR

STARTCHAR Edotaccent
ENCODING 204
SWIDTH 611 0
DWIDTH 23 0
BBX 23 34 0 0
BITMAP
000600
000F00
000F00
000F00
000600
000000
000000
000000
1FFFFE
03FFFC
03E00C
03E004
03E004
03E00C
03E000
03E000
07C000
07C000
07C000
07FFE0
07FFC0
078000
078000
0F8000
0F8000
0F8000
0F8000
0F8018
0F0018
1F0010
1F0010
1F0070
7FFFF0
FFFFF0
ENDCHAR

STARTCHAR Iacute
ENCODING 205
SWIDTH 389 0
DWIDTH 15 0
BBX 16 35 0 0
BITMAP
000E
001E
003E
007C
00F0
00C0
0300
0000
0000
1FFF
03F0
01F0
01F0
01E0
03E0
03E0
03E0
03E0
03E0
03C0
07C0
07C0
07C0
07C0
07C0
07C0
0F80
0F80
0F80
0F80
0F80
0F80
1F80
1F80
FFF0
ENDCHAR

STARTCHAR Icircumflex
ENCODING 206
SWIDTH 389 0
DWIDTH 15 0
BBX 16 35 0 0
BITMAP
0070
00F8
01F8
03DC
070C
0E0E
1C06
0000
0000
1FFF
03F0
01F0
01F0
01E0
03E0
03E0
03E0
03E0
03E0
03C0
07C0
07C0
07C0
07C0
07C0
07C0
0F80
0F80
0F80
0F80
0F80
0F80
1F80
1F80
FFF0
ENDCHAR

STARTCHAR Imacron
ENCODING 207
SWIDTH 389 0
DWIDTH 15 0
BBX 17 32 0 0
BITMAP
0FFF80
0FFF00
000000
000000
000000
000000
1FFF00
03F000
01F000
01F000
01E000
03E000
03E000
03E000
03E000
03E000
03C000
07C000
07C000
07C000
07C000
07C000
07C000
0F8000
0F8000
0F8000
0F8000
0F8000
0F8000
1F8000
1F8000
FFF000
ENDCHAR

STARTCHAR Eth
ENCODING 208
SWIDTH 778 0
DWIDTH 30 0
BBX 28 26 0 0
BITMAP
3FFFF800
07FFFF00
03E01F80
03E007C0
03E003E0
03E003E0
03C003F0
07C001F0
07C001F0
07C001F0
07C001F0
7FFF01F0
7FFF01F0
0F8003F0
0F8003F0
0F8003E0
0F8003E0
0F0003C0
1F0007C0
1F000780
1F000F00
1F001E00
1F003C00
3F007800
FFFFE000
FFFF0000
ENDCHAR

STARTCHAR Ncommaaccent
ENCODING 209
SWIDTH 778 0
DWIDTH 30 0
BBX 32 36 -1 -10
BITMAP
1FF001FF
03F00038
01F80038
01F80030
01FC0030
01FC0030
01BE0030
01BF0060
031F0060
031F8060
030F8060
030FC060
0307C040
0303E0C0
0603F0C0
0601F0C0
0601F8C0
0600FCC0
0600FCC0
06007F80
0E003F80
0C003F80
0C001F80
0C001F80
1E000F00
FF800700
00000000
00000000
00030000
000F0000
000E0000
000C0000
001C0000
00180000
00300000
00600000
ENDCHAR

STARTCHAR Omacron
ENCODING 210
SWIDTH 833 0
DWIDTH 32 0
BBX 27 32 2 0
BITMAP
003FFE00
003FFC00
00000000
00000000
00000000
00000000
001FE000
00FFFC00
03E01F00
07C00F80
0F8007C0
1F0007C0
3E0003E0
3E0003E0
7E0003E0
7C0003E0
7C0003E0
FC0003E0
FC0003E0
F80007E0
F80007E0
F80007C0
F80007C0
F8000F80
F8000F80
7C001F00
7C001E00
7C003C00
3E007800
1F80F000
07FFC000
00FC0000
ENDCHAR

STARTCHAR Kcommaaccent
ENCODING 211
SWIDTH 722 0
DWIDTH 27 0
BBX 29 36 0 -10
BITMAP
1FFF03F8
01F803C0
01F00780
01F00E00
01F01C00
03E03800
03E07000
03E0E000
03E1C000
03E38000
03E70000
03CE0000
07DF0000
07DF0000
07DF8000
07CFC000
07C7C000
0787E000
0F83F000
0F81F800
0F80F800
0F80FC00
0F807E00
1F803E00
1F803F00
FFF01FC0
00000000
00000000
00060000
001C0000
001C0000
00380000
00380000
00300000
00600000
00C00000
ENDCHAR

STARTCHAR Ocircumflex
ENCODING 212
SWIDTH 833 0
DWIDTH 32 0
BBX 27 34 2 0
BITMAP
0001C000
0003E000
0007E000
000E7000
001C3000
00701800
00000000
00000000
001FE000
00FFFC00
01E01F00
07C00F80
0F8007C0
1F0007C0
3E0003E0
3E0003E0
7E0003E0
7C0003E0
7C0003E0
FC0003E0
FC0003E0
F80007E0
F80007E0
F80007C0
F80007C0
F8000F80
F8000F80
7C001F00
7C001E00
7C003C00
3E007800
1F80F000
07FFC000
00FC0000
ENDCHAR

STARTCHAR Otilde
ENCODING 213
SWIDTH 833 0
DWIDTH 32 0
BBX 27 33 2 0
BITMAP
001F0400
003FCC00
0033F800
0060F000
00000000
00000000
00000000
001FE000
00FFFC00
01E01F00
07C00F80
0F8007C0
1F0007C0
3E0003E0
3E0003E0
7E0003E0
7C0003E0
7C0003E0
FC0003E0
FC0003E0
F80007E0
F80007E0
F80007C0
F80007C0
F8000F80
F8000F80
7C001F00
7C001E00
7C003C00
3E007800
1F80F000
07FFC000
00FC0000
ENDCHAR

STARTCHAR Odieresis
ENCODING 214
SWIDTH 833 0
DWIDTH 32 0
BBX 27 33 2 0
BITMAP
00181800
003C3C00
003C3C00
003C3C00
00181800
00000000
00000000
001FE000
00FFFC00
01E01F00
07C00F80
0F8007C0
1F0007C0
3E0003E0
3E0003E0
7E0003E0
7C0003E0
7C0003E0
FC0003E0
FC0003E0
F80007E0
F80007E0
F80007C0
F80007C0
F8000F80
F8000F80
7C001F00
7C001E00
7C003C00
3E007800
1F80F000
07FFC000
00FC0000
ENDCHAR

STARTCHAR multiply
ENCODING 215
SWIDTH 606 0
DWIDTH 23 0
BBX 17 16 3 5
BITMAP
200200
700700
F80F80
7C1F00
3E3E00
1F7C00
0FF800
07F000
03E000
07F000
0FF800
1F7C00
3E3E00
FC1F80
780F00
300600
ENDCHAR

STARTCHAR Oslash
ENCODING 216
SWIDTH 833 0
DWIDTH 32 0
BBX 28 29 1 -1
BITMAP
00000010
00000030
0007F070
007FFEE0
01F01F80
03E007C0
07C007C0
0F800FE0
1F001DF0
1F0039F0
3F0071F0
3E00E1F0
3E01C1F0
7E0381F0
7E0701F0
7C0E03F0
7C1C03F0
7C3803E0
7C7003E0
7CE007C0
7DC007C0
7D800F80
3F000F00
3E001E00
1F003C00
1FC07800
33FFE000
607E0000
C0000000
ENDCHAR

STARTCHAR Uogonek
ENCODING 217
SWIDTH 778 0
DWIDTH 30 0
BBX 29 34 2 -8
BITMAP
FF807FF8
1F800FC0
0F800F80
0F800F80
1F000F80
1F000F80
1F000F00
1F001F00
1F001F00
1F001F00
3E001F00
3E001F00
3E003E00
3E003E00
3E003E00
3E003E00
7C003E00
7C003E00
7C007C00
7C007C00
7C00FC00
7E03BC00
3F0E7C00
3FFC7C00
1FF87C00
07E0DF80
00003000
00006000
0000C000
0001C000
0001C000
0001C600
0000FC00
00007000
ENDCHAR

STARTCHAR Uacute
ENCODING 218
SWIDTH 778 0
DWIDTH 30 0
BBX 29 35 2 0
BITMAP
00001800
00007800
0000F800
0000F000
0001C000
00030000
000E0000
00000000
00000000
FF80FFF8
1F800FC0
0F800F80
0F800F80
1F000F80
1F000F00
1F001F00
1F001F00
1F001F00
1E001F00
3E001F00
3E001E00
3E003E00
3E003E00
3E003E00
3E003E00
7C003E00
7C003C00
7C007C00
7C007C00
7C00FC00
7E037C00
3F0E7C00
3FFC7C00
1FF8FC00
07E0FF80
ENDCHAR

STARTCHAR Ucircumflex
ENCODING 219
SWIDTH 778 0
DWIDTH 30 0
BBX 29 35 2 0
BITMAP
0001C000
0003E000
0007E000
000F7000
000C3000
00181800
00701800
00000000
00000000
FF80FFF8
1F800FC0
0F800F80
0F800F80
1F000F80
1F000F00
1F001F00
1F001F00
1F001F00
1E001F00
3E001F00
3E001E00
3E003E00
3E003E00
3E003E00
3E003E00
7C003E00
7C003C00
7C007C00
7C007C00
7C00FC00
7E037C00
3F0E7C00
3FFC7C00
1FF8FC00
07E0FF80
ENDCHAR

STARTCHAR Udieresis
ENCODING 220
SWIDTH 778 0
DWIDTH 30 0
BBX 28 33 2 0
BITMAP
00181800
003C3C00
003C3C00
003C3C00
00181800
00000000
00000000
FF80FFF0
1F801F80
0F800F80
0F000F80
1F000F80
1F001F00
1F001F00
1F001F00
1F001F00
1E001F00
3E001E00
3E003E00
3E003E00
3E003E00
3E003E00
3C003E00
7C003C00
7C007C00
7C007C00
7C00FC00
7C01FC00
7E037C00
3F0E7C00
3FFC7C00
1FF8FC00
07E0FF80
ENDCHAR

STARTCHAR Utilde
ENCODING 221
SWIDTH 778 0
DWIDTH 30 0
BBX 29 34 2 0
BITMAP
001F0C00
003FC800
0067F800
0061F000
00000000
00000000
00000000
00000000
FF80FFF8
1F800FC0
0F800F80
0F800F80
1F000F80
1F000F00
1F001F00
1F001F00
1F001F00
1E001F00
3E001F00
3E001E00
3E003E00
3E003E00
3E003E00
3E003E00
7C003E00
7C003C00
7C007C00
7C007C00
7C00FC00
7E037C00
3F0E7C00
3FFC7C00
1FF8FC00
07E0FF80
ENDCHAR

STARTCHAR Umacron
ENCODING 222
SWIDTH 778 0
DWIDTH 30 0
BBX 29 32 2 0
BITMAP
003FFC00
007FFC00
00000000
00000000
00000000
00000000
FF80FFF8
1F800FC0
0F800F80
0F800F80
1F000F80
1F000F00
1F001F00
1F001F00
1F001F00
1E001F00
3E001F00
3E001E00
3E003E00
3E003E00
3E003E00
3E003E00
7C003E00
7C003C00
7C007C00
7C007C00
7C00FC00
7E037C00
3F0E7C00
3FFC7C00
1FF8FC00
07E0FF80
ENDCHAR

STARTCHAR germandbls
ENCODING 223
SWIDTH 556 0
DWIDTH 21 0
BBX 26 38 -5 -11
BITMAP
00001F00
00007F80
0001C7C0
000383C0
000703C0
000F03C0
001E0380
001E0380
001E0300
003E0600
007C0C00
03FC1800
003C1800
007C3800
00787800
00787C00
00787E00
00783F00
00F81F00
00F01F80
00F00F80
00F00780
00F00700
01E20700
01E20600
01E38C00
01C7F800
01C3E000
03C00000
03800000
03800000
03000000
07000000
46000000
CC000000
F8000000
F0000000
C0000000
ENDCHAR

STARTCHAR amacron
ENCODING 224
SWIDTH 556 0
DWIDTH 21 0
BBX 18 24 2 0
BITMAP
03FFC0
07FFC0
000000
000000
000000
000000
007CC0
01FF80
030F80
0E0780
1C0F00
3C0F00
3C0F00
781F00
781E00
783600
786E00
F05E00
F09C00
F19C40
F33CC0
FE3F80
FC3E00
703800
ENDCHAR

STARTCHAR aacute
ENCODING 225
SWIDTH 556 0
DWIDTH 21 0
BBX 18 26 2 0
BITMAP
000780
000F00
001F00
003C00
007000
00E000
000000
000000
007CC0
01FF80
030F80
0E0780
1C0F00
3C0F00
3C0F00
781F00
781E00
783600
786E00
F05E00
F09C00
F19C40
F33CC0
FE3F80
FC3E00
703800
ENDCHAR

STARTCHAR acircumflex
ENCODING 226
SWIDTH 556 0
DWIDTH 21 0
BBX 18 26 2 0
BITMAP
003C00
007C00
00FE00
01CE00
038700
070380
000000
000000
007CC0
01FF80
030F80
0E0780
1C0F00
3C0F00
3C0F00
781F00
781E00
783600
786E00
F05E00
F09C00
F19C40
F33CC0
FE3F80
FC3E00
703800
ENDCHAR

STARTCHAR atilde
ENCODING 227
SWIDTH 556 0
DWIDTH 21 0
BBX 18 25 2 0
BITMAP
01F0C0
03FD80
067F80
041F00
000000
000000
000000
007CC0
01FF80
030F80
0E0780
1C0F00
3C0F00
3C0F00
781F00
781E00
783600
786E00
F05E00
F09C00
F19C40
F33CC0
FE3F80
FC3E00
703800
ENDCHAR

STARTCHAR adieresis
ENCODING 228
SWIDTH 556 0
DWIDTH 21 0
BBX 18 25 2 0
BITMAP
030300
078780
078780
078780
030300
000000
000000
00FC80
01FF80
060F80
0E0F00
1C0F00
3C0F00
381F00
781E00
783E00
782E00
705E00
F0DC00
F0BC00
F13C40
F23DC0
FC3F00
F83E00
703800
ENDCHAR

STARTCHAR aring
ENCODING 229
SWIDTH 556 0
DWIDTH 21 0
BBX 18 27 1 0
BITMAP
003C00
007E00
00E700
00C300
00C300
00E700
007E00
003C00
000000
007CC0
01FFC0
030F80
0E0780
1C0780
3C0F80
3C0F00
781F00
781F00
783700
782E00
F05E00
F09E00
F19E40
F31EC0
FE3F80
FC3E00
701C00
ENDCHAR

STARTCHAR ae
ENCODING 230
SWIDTH 738 0
DWIDTH 28 0
BBX 26 18 1 0
BITMAP
07F01F00
1FF87F80
187DC3C0
101F83C0
101F83C0
000F0780
001F0F00
001F3C00
07FFE000
3E1E0000
781E0000
701E0000
F03E0000
F03E0080
F87E0300
FFDF1E00
7F8FF800
3E07C000
ENDCHAR

STARTCHAR iogonek
ENCODING 231
SWIDTH 333 0
DWIDTH 13 0
BBX 11 34 1 -7
BITMAP
01C0
01E0
03E0
03E0
01C0
0000
0000
0000
0000
0380
0780
1F80
3F80
CF00
4F00
0F00
0F00
0E00
1E00
1E00
1E00
3C00
3C40
3DC0
3F00
3C00
1800
3000
6000
C000
C000
E200
FC00
3000
ENDCHAR

STARTCHAR ccaron
ENCODING 232
SWIDTH 444 0
DWIDTH 17 0
BBX 17 26 2 0
BITMAP
060380
030600
039C00
01F800
01F800
00F000
000000
000000
00FE00
03FE00
071E00
1E0400
3C0400
380400
780000
780000
F80000
F80000
F00000
F00000
F00000
F00400
F81800
FC7000
7FC000
3F0000
ENDCHAR

STARTCHAR eacute
ENCODING 233
SWIDTH 444 0
DWIDTH 17 0
BBX 15 26 2 0
BITMAP
000E
001E
003C
0078
00E0
0380
0000
0000
0078
03FC
071E
0E1E
1C1E
3C1C
7838
7870
79C0
7E00
F000
F000
F000
F00C
F838
FFE0
7F80
1C00
ENDCHAR

STARTCHAR eogonek
ENCODING 234
SWIDTH 444 0
DWIDTH 17 0
BBX 15 25 1 -7
BITMAP
0078
03FC
071E
0E1E
1C1E
3C1C
7838
7870
79C0
7E00
F000
F000
F000
F00C
F838
7FE0
7F80
1D00
0200
0600
0C00
0C00
0E40
0FC0
0300
ENDCHAR

STARTCHAR edieresis
ENCODING 235
SWIDTH 444 0
DWIDTH 17 0
BBX 16 25 1 0
BITMAP
0606
0F0F
0F0F
0F0F
0606
0000
0000
0078
03FC
071E
0E1E
1C1E
3C1C
7838
7870
79C0
7E00
F000
F000
F000
F00C
F838
FFE0
7F80
1C00
ENDCHAR

STARTCHAR edotaccent
ENCODING 236
SWIDTH 444 0
DWIDTH 17 0
BBX 15 25 2 0
BITMAP
0060
00F0
00F0
00F0
0060
0000
0000
0078
03FC
071E
0E1E
1C1E
3C1C
7838
7870
79C0
7E00
F000
F000
F000
F00C
F838
FFE0
7F80
1C00
ENDCHAR

STARTCHAR iacute
ENCODING 237
SWIDTH 333 0
DWIDTH 13 0
BBX 13 26 1 0
BITMAP
0038
0078
00F0
01E0
0380
0E00
0000
0000
0180
0780
1F80
3F80
C780
4F80
0F00
0F00
0F00
1E00
1E00
1E00
3E00
3C40
3CC0
3F00
3E00
3800
ENDCHAR

STARTCHAR icircumflex
ENCODING 238
SWIDTH 333 0
DWIDTH 13 0
BBX 13 26 1 0
BITMAP
03C0
03C0
07E0
0E60
1C30
7038
0000
0000
0180
0780
1F80
3F80
C780
4F80
0F00
0F00
0F00
1E00
1E00
1E00
3E00
3C40
3CC0
3F00
3E00
3800
ENDCHAR

STARTCHAR imacron
ENCODING 239
SWIDTH 333 0
DWIDTH 13 0
BBX 14 24 1 0
BITMAP
3FFC
3FFC
0000
0000
0000
0000
0380
0780
1F80
3F80
C780
4F80
0F00
0F00
0F00
1E00
1E00
1E00
3E00
3C40
3CC0
3F00
3E00
3800
ENDCHAR

STARTCHAR dcroat
ENCODING 240
SWIDTH 556 0
DWIDTH 21 0
BBX 23 28 2 0
BITMAP
000070
001FE0
001DE0
0003E0
0003E0
01FFFE
01FFFC
0003C0
0003C0
007BC0
01FF80
070F80
0E0780
1E0780
3C0F80
3C0F00
7C0F00
781F00
781700
F82F00
F82E00
F05E00
F0DE00
F19E40
F31EC0
FE3F80
FC3E00
701C00
ENDCHAR

STARTCHAR ncommaaccent
ENCODING 241
SWIDTH 556 0
DWIDTH 21 0
BBX 19 28 1 -10
BITMAP
0701C0
0F07E0
3F0FE0
7F1FC0
CF23C0
0F43C0
0E83C0
1E8780
1F0780
1F0780
1E0F80
3E0F00
3C0F00
3C0F00
3C1F20
781FC0
781F80
781E00
000000
000000
00C000
038000
038000
070000
070000
060000
0C0000
180000
ENDCHAR

STARTCHAR omacron
ENCODING 242
SWIDTH 556 0
DWIDTH 21 0
BBX 18 24 2 0
BITMAP
07FFC0
07FF80
000000
000000
000000
000000
00FC00
03FF00
0E0F80
1C0F80
3C0780
7C0780
780780
780780
F80780
F00F80
F00F00
F00F00
F00F00
F01E00
F83C00
F87800
7FE000
1F0000
ENDCHAR

STARTCHAR kcommaaccent
ENCODING 243
SWIDTH 556 0
DWIDTH 21 0
BBX 20 38 1 -10
BITMAP
002000
01E000
3FC000
07C000
07C000
07C000
078000
078000
078000
078000
0F80F0
0F03E0
0F07E0
0F0C00
0F1800
1E3000
1E7000
1EF000
1CF000
1F7800
3E7800
3C7C00
3C3C00
3C3C00
783E60
781FC0
781F00
C00C00
000000
000000
03C000
038000
070000
070000
0E0000
0C0000
180000
100000
ENDCHAR

STARTCHAR ocircumflex
ENCODING 244
SWIDTH 556 0
DWIDTH 21 0
BBX 17 26 2 0
BITMAP
003800
007C00
00FC00
01CE00
038600
070300
0C0300
000000
007C00
03FF00
0E0F80
1C0F80
3C0780
7C0780
780780
780780
F80780
F00F80
F00F00
F00F00
F00F00
F01E00
F83C00
F87800
7FE000
1F0000
ENDCHAR

STARTCHAR otilde
ENCODING 245
SWIDTH 556 0
DWIDTH 21 0
BBX 17 25 2 0
BITMAP
03E080
07F980
067F00
0C1E00
000000
000000
000000
007C00
03FF00
0E0F80
1C0F80
3C0780
7C0780
780780
780780
F80780
F00F80
F00F00
F00F00
F00F00
F01E00
F83C00
F87800
7FE000
1F0000
ENDCHAR

STARTCHAR odieresis
ENCODING 246
SWIDTH 556 0
DWIDTH 21 0
BBX 17 24 2 0
BITMAP
030300
078780
078780
078780
030300
000000
00FC00
03FF00
0E0F80
1C0F80
3C0780
780780
780780
780780
F80780
F00F80
F00F00
F00F00
F00F00
F01E00
F83C00
F87800
7FE000
1F0000
ENDCHAR

STARTCHAR divide
ENCODING 247
SWIDTH 606 0
DWIDTH 23 0
BBX 19 17 2 4
BITMAP
00E000
01F000
01F000
01F000
00E000
000000
000000
FFFFE0
FFFFE0
FFFFE0
000000
000000
00E000
01F000
01F000
01F000
00E000
ENDCHAR

STARTCHAR oslash
ENCODING 248
SWIDTH 556 0
DWIDTH 21 0
BBX 20 20 0 -1
BITMAP
000030
001E60
00FFC0
0383E0
0703E0
0F07E0
1E06E0
1E0DE0
1E19E0
3E31E0
3C63E0
3CC3C0
3D83C0
3F07C0
3E0780
3E0F00
1E1E00
3FF800
E7C000
600000
ENDCHAR

STARTCHAR uogonek
ENCODING 249
SWIDTH 556 0
DWIDTH 21 0
BBX 19 25 1 -7
BITMAP
0703E0
1F03C0
7F03C0
DF07C0
8F0780
1E0780
1E0F80
1E0F00
1C0F00
3C1700
3C3700
3C2E00
784E00
78DE20
799EC0
7F1F80
7C1E00
780C00
001000
003000
006000
006000
007100
007E00
001800
ENDCHAR

STARTCHAR uacute
ENCODING 250
SWIDTH 556 0
DWIDTH 21 0
BBX 19 27 1 0
BITMAP
000100
000780
000F80
001F00
003C00
007000
00E000
000000
000000
0703E0
1F03C0
7F03C0
DF07C0
8F0780
1E0780
1E0780
1E0F00
1C0F00
3C1700
3C3700
3C2F00
784E00
78DE20
799EC0
7F1F80
7C1F00
781C00
ENDCHAR

STARTCHAR ucircumflex
ENCODING 251
SWIDTH 556 0
DWIDTH 21 0
BBX 19 26 1 0
BITMAP
003C00
007C00
00F600
01C700
038300
070180
000000
000000
0703E0
1F03C0
7F03C0
DF07C0
8F0780
1E0780
1E0780
1E0F00
1C0F00
3C1700
3C3700
3C2F00
784E00
78DE20
799EC0
7F1F80
7C1F00
781C00
ENDCHAR

STARTCHAR udieresis
ENCODING 252
SWIDTH 556 0
DWIDTH 21 0
BBX 19 25 1 0
BITMAP
018180
03C3C0
03C3C0
03C3C0
018180
000000
000000
0701E0
1F03E0
7F03C0
DF03C0
8F03C0
1F0780
1E0780
1E0F80
1E0F80
3C1B00
3C1700
3C2F00
7C6F00
78CE20
799F60
7F1F80
7E1F00
781C00
ENDCHAR

STARTCHAR utilde
ENCODING 253
SWIDTH 556 0
DWIDTH 21 0
BBX 19 25 1 0
BITMAP
00F060
01FEC0
033FC0
020F80
000000
000000
000000
0F03E0
1F03C0
7F03C0
DF07C0
0F0780
1E0780
1E0F80
1E0F00
1C0700
3C1700
3C3700
3C2F00
784E00
78DE20
799EC0
7F1F80
7C1F00
781C00
ENDCHAR

STARTCHAR umacron
ENCODING 254
SWIDTH 556 0
DWIDTH 21 0
BBX 19 24 1 0
BITMAP
03FFC0
03FFC0
000000
000000
000000
000000
0703E0
1F03C0
7F03C0
DF07C0
8F0780
1E0780
1E0780
1E0F00
1C0F00
3C1700
3C3700
3C2F00
784E00
78DE20
799EC0
7F1F80
7C1F00
781C00
ENDCHAR

STARTCHAR dotaccent
ENCODING 255
SWIDTH 333 0
DWIDTH 13 0
BBX 4 5 7 20
BITMAP
60
F0
F0
F0
60
ENDCHAR
ENDFONT
